HIERARCHY
ROOT SpineBase
{
  OFFSET 0.000000 0.000000 0.000000
  CHANNELS 6 Xposition Yposition Zposition Zrotation Xrotation Yrotation
  JOINT SpineMid
  {
    OFFSET 0.000000 30.916063 0.000000
    CHANNELS 3 Zrotation Xrotation Yrotation
    JOINT SpineShoulder
    {
      OFFSET -0.041515 22.882274 -0.746567
      CHANNELS 3 Zrotation Xrotation Yrotation
      JOINT Neck
      {
        OFFSET -0.021145 7.542009 -0.575075
        CHANNELS 3 Zrotation Xrotation Yrotation
        JOINT Head
        {
          OFFSET -1.212375 14.598615 -0.886128
          CHANNELS 3 Zrotation Xrotation Yrotation
          End Site
          {
            OFFSET 0 0 0
          }
        }
      }
      JOINT ShoulderLeft
      {
        OFFSET -19.212566 -4.105018 3.112690
        CHANNELS 3 Zrotation Xrotation Yrotation
        JOINT ElbowLeft
        {
          OFFSET -1.391787 -26.225747 1.060302
          CHANNELS 3 Zrotation Xrotation Yrotation
          JOINT WristLeft
          {
            OFFSET 2.184582 -18.896417 -10.595432
            CHANNELS 3 Zrotation Xrotation Yrotation
            JOINT HandLeft
            {
              OFFSET 2.367747 -3.828991 -1.203032
              CHANNELS 3 Zrotation Xrotation Yrotation
              JOINT HandTipLeft
              {
                OFFSET 0.435850 -6.341969 -2.276164
                CHANNELS 3 Zrotation Xrotation Yrotation
                End Site
                {
                  OFFSET 0 0 0
                }
              }
              JOINT ThumbLeft
              {
                OFFSET 2.593318 0.004518 -0.320207
                CHANNELS 3 Zrotation Xrotation Yrotation
                End Site
                {
                  OFFSET 0 0 0
                }
              }
            }
          }
        }
      }
      JOINT ShoulderRight
      {
        OFFSET 16.508130 -4.135312 -7.620961
        CHANNELS 3 Zrotation Xrotation Yrotation
        JOINT ElbowRight
        {
          OFFSET 4.071156 -23.153210 -2.211644
          CHANNELS 3 Zrotation Xrotation Yrotation
          JOINT WristRight
          {
            OFFSET -8.365079 -18.662570 -6.951207
            CHANNELS 3 Zrotation Xrotation Yrotation
            JOINT HandRight
            {
              OFFSET -4.657945 -5.442618 -0.321127
              CHANNELS 3 Zrotation Xrotation Yrotation
              JOINT HandTipRight
              {
                OFFSET -4.157920 -6.040911 -1.527512
                CHANNELS 3 Zrotation Xrotation Yrotation
                End Site
                {
                  OFFSET 0 0 0
                }
              }
              JOINT ThumbRight
              {
                OFFSET 2.028859 -1.771348 0.485531
                CHANNELS 3 Zrotation Xrotation Yrotation
                End Site
                {
                  OFFSET 0 0 0
                }
              }
            }
          }
        }
      }
    }
  }
  JOINT HipLeft
  {
    OFFSET -8.113446 0.023268 -2.074952
    CHANNELS 3 Zrotation Xrotation Yrotation
    JOINT KneeLeft
    {
      OFFSET 1.020664 -32.594380 8.129424
      CHANNELS 3 Zrotation Xrotation Yrotation
      JOINT AnkleLeft
      {
        OFFSET 1.805964 -32.343632 8.807579
        CHANNELS 3 Zrotation Xrotation Yrotation
        JOINT FootLeft
        {
          OFFSET -1.605363 -8.332701 -6.273581
          CHANNELS 3 Zrotation Xrotation Yrotation
          End Site
          {
            OFFSET 0 0 0
          }
        }
      }
    }
  }
  JOINT HipRight
  {
    OFFSET 8.221960 1.085058 -5.308180
    CHANNELS 3 Zrotation Xrotation Yrotation
    JOINT KneeRight
    {
      OFFSET 3.595777 -33.960466 8.422623
      CHANNELS 3 Zrotation Xrotation Yrotation
      JOINT AnkleRight
      {
        OFFSET 2.190742 -31.289551 9.723913
        CHANNELS 3 Zrotation Xrotation Yrotation
        JOINT FootRight
        {
          OFFSET -2.353880 -6.331555 -10.530959
          CHANNELS 3 Zrotation Xrotation Yrotation
          End Site
          {
            OFFSET 0 0 0
          }
        }
      }
    }
  }
}
MOTION
Frames: 6
Frame Time: 0.033333
-9.019412 74.177775 356.279968 -0.000000 0.000000 11.195716 0.000000 -0.000000 -11.195716 -0.000000 0.000000 0.000000 -0.000000 0.000000 0.000000 0.000000 0.000000 0.000000 -0.000000 0.000000 0.000000 -0.000000 0.000000 0.000000 -0.000000 0.000000 0.000000 -0.000000 0.000000 0.000000 0.000000 0.000000 0.000000 0.000000 0.000000 0.000000 -0.000000 0.000000 0.000000 -0.000000 0.000000 0.000000 -0.000000 0.000000 0.000000 -0.000000 0.000000 0.000000 0.000000 0.000000 0.000000 0.000000 0.000000 0.000000 0.000000 -0.000000 -11.195716 -0.000000 0.000000 0.000000 -0.000000 0.000000 0.000000 0.000000 0.000000 0.000000 0.000000 -0.000000 -11.195716 -0.000000 0.000000 0.000000 -0.000000 0.000000 0.000000 0.000000 0.000000 0.000000
-9.129814 74.154550 356.265311 -0.055934 0.016716 11.543075 0.051457 -0.027571 -11.543054 -0.000000 0.000000 0.000000 -0.000000 0.000000 0.000000 0.000000 0.000000 0.000000 -0.000000 0.000000 0.000000 -0.000000 0.000000 0.000000 -0.000000 0.000000 0.000000 0.506834 0.662272 -0.138990 0.000000 0.000000 0.000000 0.000000 0.000000 0.000000 -0.000000 0.000000 0.000000 -0.000000 0.000000 0.000000 0.732701 -1.438949 1.204970 -0.082656 0.914026 -0.995519 0.000000 0.000000 0.000000 0.000000 0.000000 0.000000 0.051457 -0.027571 -11.543054 -0.000000 0.000000 0.000000 1.920468 -6.695621 -0.044339 0.000000 0.000000 0.000000 0.051457 -0.027571 -11.543054 -0.000000 0.000000 0.000000 0.114859 -1.179142 0.252951 0.000000 0.000000 0.000000
-9.229323 74.133777 356.252133 -0.102684 0.024928 11.848759 0.095377 -0.045481 -11.848699 -0.000000 0.000000 0.000000 -0.000000 0.000000 0.000000 0.000000 0.000000 0.000000 -0.000000 0.000000 0.000000 -0.000000 0.000000 0.000000 -0.594162 -0.533955 -0.146960 1.456977 1.778575 -0.100885 0.000000 0.000000 0.000000 0.000000 0.000000 0.000000 -0.000000 0.000000 0.000000 -0.000000 0.000000 0.000000 1.346202 -2.724225 2.310651 -0.041123 1.851817 -2.002609 0.000000 0.000000 0.000000 0.000000 0.000000 0.000000 0.095377 -0.045481 -11.848699 -0.000000 0.000000 0.000000 3.272246 -11.157478 0.012818 0.000000 0.000000 0.000000 0.095377 -0.045481 -11.848699 -0.000000 0.000000 0.000000 0.372901 -2.814657 0.454672 0.000000 0.000000 0.000000
-9.317939 74.115456 356.240433 -0.140249 0.024636 12.112965 0.131957 -0.053517 -12.112873 -0.000000 0.000000 0.000000 -0.000000 0.000000 0.000000 0.000000 0.000000 0.000000 -0.000000 0.000000 0.000000 -0.843546 0.112401 0.486960 0.426083 -0.999074 -0.908815 1.467837 2.628527 0.117999 0.000000 0.000000 0.000000 0.000000 0.000000 0.000000 -0.000000 0.000000 0.000000 -0.000000 0.000000 0.000000 1.841022 -3.879449 3.326603 0.116043 2.833225 -3.041794 0.000000 0.000000 0.000000 0.000000 0.000000 0.000000 0.131957 -0.053517 -12.112873 -0.000000 0.000000 0.000000 3.994022 -13.227859 0.016408 0.000000 0.000000 0.000000 0.131957 -0.053517 -12.112873 -0.000000 0.000000 0.000000 0.787339 -4.956738 0.614211 0.000000 0.000000 0.000000
-9.395662 74.099587 356.230213 -0.168631 0.015839 12.335872 0.161354 -0.051500 -12.335777 -0.000000 0.000000 0.000000 -0.000000 0.000000 0.000000 0.000000 0.000000 0.000000 -0.000000 0.000000 0.000000 -1.063258 0.136127 0.613442 1.166924 -1.436179 -1.445308 0.967545 3.444334 0.533672 0.000000 0.000000 0.000000 0.000000 0.000000 0.000000 -0.000000 0.000000 0.000000 0.665399 -0.748821 0.092620 1.541758 -4.178940 4.148360 0.385778 3.873197 -4.129295 0.000000 0.000000 0.000000 0.000000 0.000000 0.000000 0.161354 -0.051500 -12.335777 -0.000000 0.000000 0.000000 4.059161 -12.886849 -0.116146 0.000000 0.000000 0.000000 0.161354 -0.051500 -12.335777 -0.000000 0.000000 0.000000 1.376318 -7.668960 0.744661 0.000000 0.000000 0.000000
-9.462492 74.086170 356.221471 -0.187827 -0.001463 12.517641 0.183680 -0.039282 -12.517581 -0.000000 0.000000 0.000000 0.475692 -0.729921 -0.028693 0.000000 0.000000 0.000000 -0.000000 0.000000 0.000000 -1.252159 0.153348 0.721892 2.221155 -1.929886 -2.093045 -0.054214 4.211262 1.155101 0.000000 0.000000 0.000000 0.000000 0.000000 0.000000 -0.000000 0.000000 0.000000 0.828304 -0.909765 0.106505 1.625219 -4.972177 4.990127 0.770687 4.981838 -5.277729 0.000000 0.000000 0.000000 0.000000 0.000000 0.000000 0.183680 -0.039282 -12.517581 -0.000000 0.000000 0.000000 3.476724 -10.134800 -0.379919 0.000000 0.000000 0.000000 0.183680 -0.039282 -12.517581 -0.000000 0.000000 0.000000 2.164213 -11.025847 0.865653 0.000000 0.000000 0.000000
